<svg width="79" height="94" viewBox="0 0 79 94" fill="none" xmlns="http://www.w3.org/2000/svg">
<rect width="79" height="94" fill="#FFED90"/>
<path d="M14.52 21.281H25.414V22.646H14.52V21.281ZM19.239 22.009H20.981V24.544H19.239V22.009ZM15.781 25.571H24.218V26.949H15.781V25.571ZM15.781 23.634H17.497V26.156H15.781V23.634ZM15.911 15.496H17.614V16.731H22.307V15.496H24.023V20.449H15.911V15.496ZM17.614 18.031V19.097H22.307V18.031H17.614ZM32.628 17.355H35.072V18.759H32.628V17.355ZM29.235 15.743H30.652V16.874C30.652 19.253 29.599 21.32 27.311 22.113L26.401 20.748C28.416 20.085 29.235 18.499 29.235 16.874V15.743ZM29.586 15.743H30.977V16.978C30.977 18.473 31.783 19.942 33.668 20.553L32.771 21.905C30.587 21.151 29.586 19.201 29.586 16.978V15.743ZM28.351 22.828H36.554V27.157H34.825V24.193H28.351V22.828ZM34.825 15.119H36.554V22.282H34.825V15.119ZM46.2308 17.771H48.2328V19.162H46.2308V17.771ZM46.2308 21.489H48.2328V22.893H46.2308V21.489ZM50.1438 15.119H51.7948V27.157H50.1438V15.119ZM47.7388 15.301H49.3508V26.611H47.7388V15.301ZM44.1508 15.964C45.7498 15.964 46.7768 17.615 46.7768 20.332C46.7768 23.062 45.7498 24.713 44.1508 24.713C42.5648 24.713 41.5508 23.062 41.5508 20.332C41.5508 17.615 42.5648 15.964 44.1508 15.964ZM44.1508 17.589C43.4878 17.589 43.0978 18.499 43.0978 20.332C43.0978 22.178 43.4878 23.075 44.1508 23.075C44.8268 23.075 45.2168 22.178 45.2168 20.332C45.2168 18.499 44.8268 17.589 44.1508 17.589ZM53.4057 21.099H64.2867V22.464H53.4057V21.099ZM54.6147 23.361H62.9737V27.157H61.2447V24.713H54.6147V23.361ZM57.9817 15.158H59.6977V16.926H57.9817V15.158ZM57.8777 17.056H59.3987V17.303C59.3987 19.123 57.6567 20.41 54.3807 20.644L53.8607 19.344C56.7597 19.162 57.8777 18.226 57.8777 17.303V17.056ZM58.2807 17.056H59.8017V17.303C59.8017 18.226 60.9197 19.162 63.8187 19.344L63.2987 20.644C60.0097 20.41 58.2807 19.123 58.2807 17.303V17.056ZM54.4457 16.237H63.2467V17.576H54.4457V16.237Z" fill="black"/>
<path d="M12.12 38.5C11.5016 38.5 11 38.9904 11 39.5946V76.4054C11 77.0096 11.5016 77.4995 12.12 77.5H66.88C67.4984 77.5 68 77.0096 68 76.4054V39.5946C68 38.9904 67.4984 38.5005 66.88 38.5H12.12ZM24.8926 40.6908H31.9521C33.7704 41.2716 35.6457 41.8192 37.5227 42.321C41.6609 43.4265 45.7478 44.3261 48.925 44.9501C49.9361 45.1487 50.8099 45.3073 51.6102 45.4477C51.0625 45.9854 50.5249 46.5215 49.976 47.0566L49.3735 47.6437C45.6725 46.5865 41.4386 45.5346 35.9934 44.493C32.1516 43.7588 28.4483 42.4317 24.8926 40.6908ZM34.6282 40.6908H42.8664C45.0944 41.2203 47.334 41.7082 49.5839 42.154C51.14 42.4598 52.4681 42.6964 53.4507 42.854C53.8469 42.9187 54.2442 42.9769 54.6426 43.0287C54.939 43.0656 55.1847 43.0729 55.0958 43.0755L55.0992 43.1576C55.9154 42.341 56.7248 41.5187 57.5274 40.6908H60.5666C58.0193 43.374 55.1442 46.2048 52.2651 49.0118C46.6803 54.4557 41.2037 59.768 38.9129 62.9878C39.5786 63.8833 39.934 64.9406 39.9332 66.0226C39.9332 66.9549 39.6727 67.8342 39.2144 68.6033C41.5497 70.2689 43.2939 72.6884 44.8734 75.3092H42.2314C40.8726 73.2032 39.4333 71.3869 37.7672 70.2091C37.0081 70.7859 36.1032 71.1808 35.1345 71.3578C34.1658 71.5347 33.164 71.4883 32.22 71.2226C31.6777 72.6109 31.0631 73.9749 30.3783 75.3098H27.8532C28.7236 73.6754 29.5176 71.9979 30.1879 70.2231C28.8564 69.2232 28.0048 67.7094 28.0048 66.0226C28.0048 64.5915 28.6221 63.2884 29.6213 62.3144C26.2526 55.4452 20.1679 51.9144 13.2407 48.1626V45.7322C20.5891 49.6868 27.6018 53.4484 31.5103 61.0732C32.4283 60.6879 33.4395 60.5242 34.4468 60.5978C35.4541 60.6715 36.4237 60.98 37.2628 61.4939C39.9247 57.8986 45.2057 52.8468 50.599 47.5896C51.5042 46.7072 52.3974 45.8226 53.2951 44.9376C53.2051 44.9241 53.1509 44.9178 53.0546 44.9022C51.733 44.686 50.4159 44.4477 49.1039 44.1872C45.9444 43.5669 41.8746 42.6709 37.7626 41.5722C36.7133 41.2913 35.6688 40.9975 34.6282 40.6908ZM46.3981 40.6908H56.372C55.8618 41.2128 55.3631 41.7292 54.8319 42.2617C54.8034 42.2591 54.788 42.2596 54.7589 42.256C54.371 42.2053 53.9841 42.1485 53.5984 42.0854C52.6311 41.9299 51.311 41.6954 49.7646 41.3917C48.6402 41.1687 47.5183 40.9351 46.3993 40.6908M61.7015 40.6908H65.7599V42.971C65.736 42.9694 65.7132 42.9647 65.6892 42.9647H65.6818C65.4173 42.9656 65.1639 43.0624 64.9776 43.2336C64.7912 43.4049 64.687 43.6368 64.688 43.8781C64.689 44.1194 64.795 44.3506 64.9828 44.5206C65.1706 44.6906 65.4247 44.7856 65.6892 44.7847C65.7132 44.7847 65.736 44.78 65.7593 44.7785V46.611C65.7365 46.6094 65.7137 46.6047 65.6892 46.6047H65.6818C65.4173 46.6056 65.1639 46.7024 64.9776 46.8736C64.7912 47.0449 64.687 47.2768 64.688 47.5181C64.689 47.7594 64.795 47.9906 64.9828 48.1606C65.1706 48.3306 65.4247 48.4256 65.6892 48.4247C65.7132 48.4247 65.736 48.42 65.7593 48.4185V50.251C65.7365 50.2494 65.7137 50.2447 65.6892 50.2447C65.4247 50.2447 65.1709 50.3406 64.9839 50.5113C64.7968 50.6819 64.6917 50.9134 64.6917 51.1547C64.6917 51.3961 64.7968 51.6275 64.9839 51.7982C65.1709 51.9688 65.4247 52.0647 65.6892 52.0647C65.7132 52.0647 65.736 52.06 65.7593 52.0585V52.7319C65.3085 52.6014 64.8485 52.4708 64.409 52.3398C64.2967 52.2348 64.1582 52.1561 64.0054 52.1105C63.8525 52.0649 63.6898 52.0536 63.5312 52.0777C63.1658 51.967 62.8147 51.8567 62.4573 51.746C62.5631 51.6331 62.637 51.4984 62.6726 51.3535C62.7082 51.2087 62.7044 51.058 62.6615 50.9148C62.6187 50.7716 62.538 50.6401 62.4267 50.5318C62.3153 50.4236 62.1766 50.3418 62.0227 50.2937C61.8687 50.2455 61.7042 50.2325 61.5435 50.2557C61.3827 50.2789 61.2306 50.3376 61.1005 50.4267C60.9703 50.5158 60.866 50.6326 60.7967 50.767C60.7274 50.9013 60.6952 51.0491 60.7029 51.1974C59.89 50.9379 59.0943 50.6784 58.2963 50.4194C58.1397 50.3152 57.9531 50.2548 57.7594 50.2458C57.3547 50.1142 56.9426 49.9821 56.5362 49.8506C56.6851 49.6534 56.743 49.4107 56.6971 49.1749C56.6512 48.9392 56.5053 48.7294 56.2911 48.5911L55.3813 49.4803C54.7845 49.2879 54.1507 49.0966 53.5402 48.9052C56.3902 46.1253 59.2134 43.3381 61.7015 40.6908ZM64.5857 41.6476C63.9268 41.7963 63.3676 42.0573 62.797 42.451C62.8525 42.5616 62.9318 42.6609 63.0301 42.7431C63.1284 42.8253 63.2438 42.8887 63.3694 42.9295C63.4951 42.9703 63.6284 42.9877 63.7615 42.9807C63.8946 42.9737 64.0249 42.9424 64.1445 42.8886C64.2642 42.8349 64.3708 42.7599 64.4581 42.6679C64.5454 42.5759 64.6116 42.4689 64.6528 42.3532C64.6939 42.2375 64.7093 42.1155 64.6979 41.9942C64.6864 41.873 64.6479 41.7552 64.5857 41.6476ZM62.0663 43.0287C61.6204 43.4095 61.1892 43.8044 60.7735 44.2127C60.8349 44.3527 60.9334 44.4766 61.0602 44.5733C61.187 44.67 61.3381 44.7364 61.5001 44.7666C61.662 44.7968 61.8296 44.7898 61.9878 44.7463C62.146 44.7028 62.2899 44.624 62.4066 44.5172C62.5232 44.4104 62.6089 44.2788 62.656 44.1343C62.7031 43.9898 62.7101 43.8369 62.6763 43.6893C62.6426 43.5417 62.5692 43.404 62.4627 43.2887C62.3562 43.1734 62.22 43.0841 62.0663 43.0287ZM13.2424 44.0635C23.5679 50.3217 32.1858 52.9035 42.4611 54.4453C40.2923 56.6449 38.3919 58.6885 37.0051 60.4658C36.0647 60.03 35.0252 59.802 33.9704 59.8002C33.2631 59.8002 32.5791 59.9011 31.9355 60.0873C27.7666 52.5192 20.5561 48.7565 13.2424 44.8222V44.0635ZM63.6874 44.7847C63.5564 44.7856 63.4269 44.8101 63.3062 44.8567C63.1856 44.9033 63.0762 44.9711 62.9843 45.0562C62.8924 45.1414 62.8198 45.2422 62.7706 45.353C62.7214 45.4637 62.6966 45.5822 62.6976 45.7017C62.6986 45.8212 62.7254 45.9394 62.7764 46.0494C62.8275 46.1595 62.9018 46.2593 62.9952 46.3432C63.0885 46.427 63.199 46.4933 63.3205 46.5381C63.4419 46.583 63.5718 46.6056 63.7028 46.6047C63.9673 46.6029 64.2202 46.5052 64.4059 46.3332C64.5915 46.1612 64.6946 45.929 64.6926 45.6877C64.6905 45.4464 64.5835 45.2156 64.395 45.0463C64.2065 44.8769 63.9519 44.7829 63.6874 44.7847ZM60.1078 44.8617L58.8219 46.118C58.896 46.2465 59.0028 46.3569 59.1333 46.44C59.2638 46.5232 59.4142 46.5766 59.572 46.5959C59.7297 46.6152 59.8902 46.5998 60.0401 46.5509C60.19 46.502 60.3249 46.4212 60.4335 46.315C60.5421 46.2089 60.6214 46.0806 60.6645 45.9409C60.7077 45.8011 60.7136 45.6539 60.6817 45.5117C60.6498 45.3694 60.5811 45.2362 60.4813 45.1231C60.3814 45.01 60.2534 44.9204 60.1078 44.8617ZM61.6924 46.6047C61.5614 46.6056 61.4319 46.6301 61.3112 46.6767C61.1906 46.7233 61.0812 46.7911 60.9893 46.8762C60.8974 46.9614 60.8248 47.0622 60.7756 47.173C60.7264 47.2837 60.7016 47.4022 60.7026 47.5217C60.7036 47.6412 60.7304 47.7594 60.7814 47.8694C60.8325 47.9795 60.9068 48.0793 61.0002 48.1632C61.0935 48.247 61.204 48.3133 61.3255 48.3581C61.4469 48.403 61.5768 48.4256 61.7078 48.4247C61.9723 48.4229 62.2252 48.3252 62.4109 48.1532C62.5965 47.9812 62.6996 47.749 62.6976 47.5077C62.6955 47.2664 62.5885 47.0356 62.4 46.8663C62.2115 46.6969 61.9569 46.6029 61.6924 46.6047ZM58.2034 46.7233L56.8793 48.0176C56.9626 48.1321 57.0733 48.2279 57.203 48.2978C57.3327 48.3677 57.4781 48.41 57.6282 48.4213C57.7784 48.4326 57.9294 48.4128 58.0699 48.3632C58.2105 48.3137 58.3369 48.2358 58.4397 48.1353C58.5425 48.0348 58.619 47.9144 58.6635 47.7831C58.708 47.6517 58.7192 47.5129 58.6965 47.3771C58.6738 47.2412 58.6176 47.1118 58.5322 46.9986C58.4468 46.8853 58.3344 46.7912 58.2034 46.7233ZM59.6968 48.4247C59.5658 48.4257 59.4363 48.4502 59.3157 48.4968C59.1951 48.5434 59.0857 48.6112 58.9938 48.6964C58.9019 48.7816 58.8293 48.8824 58.7802 48.9932C58.731 49.104 58.7062 49.2225 58.7073 49.342C58.7083 49.4615 58.7352 49.5796 58.7863 49.6897C58.8374 49.7997 58.9117 49.8995 59.0051 49.9833C59.0985 50.0672 59.209 50.1334 59.3304 50.1782C59.4519 50.2231 59.5818 50.2457 59.7128 50.2447C59.9773 50.2429 60.2302 50.1452 60.4159 49.9732C60.6015 49.8012 60.7046 49.569 60.7026 49.3277C60.7005 49.0864 60.5935 48.8556 60.405 48.6863C60.2165 48.5169 59.9614 48.4229 59.6968 48.4247ZM63.6874 48.4247C63.5564 48.4257 63.4269 48.4502 63.3063 48.4968C63.1856 48.5434 63.0763 48.6112 62.9844 48.6964C62.8925 48.7816 62.8199 48.8824 62.7707 48.9932C62.7216 49.104 62.6968 49.2225 62.6979 49.342C62.6989 49.4615 62.7257 49.5796 62.7768 49.6897C62.8279 49.7997 62.9023 49.8995 62.9957 49.9833C63.089 50.0672 63.1996 50.1334 63.321 50.1782C63.4424 50.2231 63.5723 50.2457 63.7033 50.2447C63.9679 50.2429 64.2208 50.1452 64.4064 49.9732C64.592 49.8012 64.6952 49.569 64.6931 49.3277C64.6911 49.0864 64.5841 48.8556 64.3955 48.6863C64.207 48.5169 63.9519 48.4229 63.6874 48.4247ZM13.2429 49.0737C19.7854 52.6305 25.3959 55.9756 28.6221 62.1896C27.7061 63.2494 27.1527 64.5801 27.1527 66.022C27.1527 67.7474 27.9404 69.3152 29.2001 70.4467C28.5366 72.1336 27.758 73.7383 26.9064 75.3092H24.4395L26.007 72.833L24.3414 71.9558L24.9348 71.0172L22.628 69.8024L19.1424 75.3092H13.2407V57.1264L17.6205 59.509L20.344 55.3428L13.2412 51.4782L13.2429 49.0737ZM47.2406 55.1072C48.563 55.3074 49.8455 55.5867 51.0767 55.9236C50.942 56.0287 50.8405 56.1645 50.7824 56.3172C50.7244 56.4699 50.7119 56.6339 50.7464 56.7925C50.7809 56.951 50.861 57.0983 50.9786 57.2192C51.0962 57.3401 51.2469 57.4303 51.4153 57.4804C51.5837 57.5306 51.7638 57.5389 51.9369 57.5046C52.11 57.4702 52.2699 57.3944 52.4003 57.285C52.5307 57.1755 52.6267 57.0364 52.6786 56.8818C52.7305 56.7273 52.7363 56.563 52.6955 56.4057C53.4758 56.6568 54.2288 56.9257 54.9584 57.2065C55.0574 57.312 55.1815 57.3954 55.3213 57.4504C55.4612 57.5054 55.6129 57.5305 55.7649 57.5237C56.1349 57.6745 56.4923 57.8274 56.8462 57.9813C56.779 58.0888 56.7365 58.2077 56.7213 58.3307C56.7061 58.4537 56.7186 58.5782 56.758 58.6967C56.7975 58.8151 56.8629 58.925 56.9505 59.0196C57.038 59.1141 57.1458 59.1914 57.2673 59.2467C57.3887 59.3019 57.5212 59.334 57.6566 59.341C57.7921 59.3479 57.9277 59.3295 58.0552 59.287C58.1826 59.2445 58.2992 59.1787 58.3978 59.0937C58.4964 59.0087 58.5749 58.9062 58.6286 58.7925C59.0236 58.9812 59.3639 59.1606 59.7316 59.3458C59.7206 59.3453 59.7095 59.3449 59.6985 59.3447C59.4763 59.3461 59.261 59.4152 59.0867 59.5409C58.9124 59.6667 58.7891 59.8419 58.7364 60.0389C58.6837 60.2358 58.7046 60.4432 58.7957 60.6281C58.8869 60.8129 59.0431 60.9648 59.2397 61.0594C59.4362 61.1541 59.6617 61.1862 59.8805 61.1506C60.0993 61.115 60.2987 61.0138 60.4473 60.863C60.5958 60.7122 60.6849 60.5205 60.7005 60.3183C60.716 60.1161 60.6571 59.9149 60.533 59.7467C62.3553 60.6879 63.7917 61.5043 64.7094 61.9161C64.684 62.047 64.6903 62.1814 64.728 62.3098C64.7656 62.4382 64.8336 62.5575 64.9272 62.6594C65.0209 62.7612 65.1378 62.8432 65.2698 62.8994C65.4019 62.9556 65.5458 62.9847 65.6915 62.9847C65.7154 62.9847 65.7371 62.9769 65.761 62.9754V64.811C65.7382 64.8094 65.7154 64.8047 65.6909 64.8047H65.6835C65.419 64.8056 65.1656 64.9024 64.9793 65.0736C64.7929 65.2449 64.6887 65.4768 64.6897 65.7181C64.6907 65.9594 64.7967 66.1906 64.9845 66.3606C65.1723 66.5306 65.4264 66.6256 65.6909 66.6247C65.7149 66.6247 65.7377 66.62 65.761 66.6185V68.451C65.7382 68.4494 65.7154 68.4447 65.6909 68.4447C65.4264 68.4447 65.1727 68.5406 64.9856 68.7113C64.7985 68.8819 64.6934 69.1134 64.6934 69.3547C64.6934 69.5961 64.7985 69.8275 64.9856 69.9982C65.1727 70.1688 65.4264 70.2647 65.6909 70.2647C65.7149 70.2647 65.7377 70.26 65.761 70.2585V75.3092H45.8555C44.3165 72.6988 42.6122 70.2143 40.2724 68.3808C40.665 67.5201 40.8375 66.5892 40.777 65.6587C40.7164 64.7282 40.4244 63.8224 39.9229 63.0102C41.4181 61.0306 44.1295 58.2085 47.2383 55.1072H47.2406ZM49.7315 57.5247C49.6072 57.5247 49.4841 57.5455 49.3684 57.5871C49.2644 58.1402 49.2468 58.7039 49.316 59.2615C49.4515 59.3184 49.5992 59.3468 49.7484 59.3446C49.8975 59.3425 50.0442 59.3098 50.1777 59.2491C50.3112 59.1884 50.4281 59.1012 50.5197 58.9938C50.6113 58.8864 50.6754 58.7617 50.7072 58.6288C50.739 58.4958 50.7377 58.3581 50.7035 58.2256C50.6692 58.0932 50.6028 57.9695 50.5092 57.8636C50.4156 57.7576 50.2971 57.6722 50.1625 57.6136C50.0279 57.5549 49.8806 57.5246 49.7315 57.5247ZM53.7215 57.5247C53.4569 57.5247 53.2032 57.6206 53.0162 57.7913C52.8291 57.9619 52.724 58.1934 52.724 58.4347C52.724 58.6761 52.8291 58.9075 53.0162 59.0782C53.2032 59.2488 53.4569 59.3447 53.7215 59.3447C53.986 59.3447 54.2398 59.2488 54.4268 59.0782C54.6139 58.9075 54.719 58.6761 54.719 58.4347C54.719 58.1934 54.6139 57.9619 54.4268 57.7913C54.2398 57.6206 53.986 57.5247 53.7215 57.5247ZM21.3746 59.2444L19.3095 62.5074L17.9238 64.6966L21.5005 66.581L22.8868 64.3913L24.3072 65.1401L26.3723 61.8766L24.9519 61.1278L21.3746 59.2444ZM51.7185 59.3447C51.5875 59.3456 51.458 59.3701 51.3374 59.4167C51.2167 59.4633 51.1073 59.5311 51.0154 59.6162C50.8298 59.7882 50.7267 60.0204 50.7287 60.2617C50.7308 60.5031 50.8378 60.7338 51.0263 60.9031C51.2148 61.0725 51.4694 61.1666 51.7339 61.1647C51.9985 61.1629 52.2514 61.0652 52.437 60.8932C52.6226 60.7212 52.7258 60.489 52.7237 60.2477C52.7217 60.0064 52.6146 59.7756 52.4261 59.6063C52.2376 59.4369 51.9831 59.3429 51.7185 59.3447ZM55.7085 59.3447C55.5775 59.3456 55.448 59.3701 55.3274 59.4167C55.2067 59.4633 55.0973 59.5311 55.0054 59.6162C54.8198 59.7882 54.7167 60.0204 54.7187 60.2617C54.7208 60.5031 54.8278 60.7338 55.0163 60.9031C55.2048 61.0725 55.4594 61.1666 55.7239 61.1647C55.9885 61.1629 56.2414 61.0652 56.427 60.8932C56.6126 60.7212 56.7158 60.489 56.7137 60.2477C56.7117 60.0064 56.6046 59.7756 56.4161 59.6063C56.2276 59.4369 55.9731 59.3429 55.7085 59.3447ZM53.7135 61.1647C53.5825 61.1656 53.453 61.1901 53.3324 61.2367C53.2117 61.2833 53.1023 61.3511 53.0104 61.4362C52.9185 61.5214 52.8459 61.6222 52.7967 61.733C52.7475 61.8437 52.7227 61.9622 52.7237 62.0817C52.7247 62.2012 52.7515 62.3194 52.8026 62.4294C52.8537 62.5395 52.928 62.6393 53.0213 62.7231C53.1147 62.807 53.2252 62.8733 53.3466 62.9181C53.468 62.963 53.5979 62.9856 53.7289 62.9847C53.9935 62.9829 54.2464 62.8852 54.432 62.7132C54.6176 62.5412 54.7208 62.309 54.7187 62.0677C54.7167 61.8264 54.6096 61.5956 54.4211 61.4263C54.2326 61.2569 53.9781 61.1629 53.7135 61.1647ZM57.7035 61.1647C57.5725 61.1656 57.443 61.1901 57.3224 61.2367C57.2017 61.2833 57.0923 61.3511 57.0004 61.4362C56.9085 61.5214 56.8359 61.6222 56.7867 61.733C56.7375 61.8437 56.7127 61.9622 56.7137 62.0817C56.7147 62.2012 56.7415 62.3194 56.7926 62.4294C56.8437 62.5395 56.918 62.6393 57.0113 62.7231C57.1047 62.807 57.2152 62.8733 57.3366 62.9181C57.458 62.963 57.5879 62.9856 57.7189 62.9847C57.9835 62.9829 58.2364 62.8852 58.422 62.7132C58.6076 62.5412 58.7108 62.309 58.7087 62.0677C58.7067 61.8264 58.5996 61.5956 58.4111 61.4263C58.2226 61.2569 57.9681 61.1629 57.7035 61.1647ZM61.6935 61.1647C61.5625 61.1656 61.433 61.1901 61.3124 61.2367C61.1917 61.2833 61.0823 61.3511 60.9904 61.4362C60.8985 61.5214 60.8259 61.6222 60.7767 61.733C60.7275 61.8437 60.7027 61.9622 60.7037 62.0817C60.7047 62.2012 60.7315 62.3194 60.7826 62.4294C60.8337 62.5395 60.908 62.6393 61.0013 62.7231C61.0947 62.807 61.2052 62.8733 61.3266 62.9181C61.448 62.963 61.5779 62.9856 61.7089 62.9847C61.9735 62.9829 62.2264 62.8852 62.412 62.7132C62.5976 62.5412 62.7008 62.309 62.6987 62.0677C62.6967 61.8264 62.5896 61.5956 62.4011 61.4263C62.2126 61.2569 61.9581 61.1629 61.6935 61.1647ZM49.8871 61.1756C49.8945 61.1918 49.8991 61.2074 49.9071 61.2235C49.8961 61.8093 49.8697 62.3948 49.8278 62.9795C50.0688 62.9575 50.2928 62.8562 50.458 62.6947C50.6231 62.5331 50.7182 62.3222 50.7255 62.1013C50.7327 61.8805 50.6517 61.6648 50.4974 61.4944C50.3431 61.3241 50.1262 61.2108 49.8871 61.1756ZM33.9716 62.6608C33.4871 62.6588 33.007 62.7444 32.5589 62.9126C32.1109 63.0809 31.7039 63.3284 31.3614 63.641C31.0188 63.9536 30.7476 64.325 30.5633 64.7338C30.379 65.1425 30.2853 65.5806 30.2877 66.0226C30.2853 66.4645 30.379 66.9025 30.5633 67.3112C30.7476 67.7199 31.0189 68.0912 31.3614 68.4037C31.704 68.7162 32.111 68.9637 32.559 69.1318C33.007 69.3 33.4871 69.3855 33.9716 69.3833C34.4561 69.3855 34.9362 69.3 35.3843 69.1319C35.8323 68.9637 36.2395 68.7163 36.5821 68.4038C36.9247 68.0913 37.1961 67.72 37.3805 67.3113C37.565 66.9025 37.6588 66.4645 37.6566 66.0226C37.6589 65.5805 37.5651 65.1424 37.3807 64.7336C37.1963 64.3248 36.925 63.9534 36.5823 63.6408C36.2397 63.3282 35.8326 63.0807 35.3845 62.9125C34.9363 62.7442 34.4561 62.6587 33.9716 62.6608ZM51.7185 62.9847C51.5875 62.9856 51.458 63.0101 51.3374 63.0567C51.2167 63.1033 51.1073 63.1711 51.0154 63.2562C50.9235 63.3414 50.8509 63.4422 50.8017 63.553C50.7525 63.6637 50.7277 63.7822 50.7287 63.9017C50.7297 64.0212 50.7565 64.1394 50.8076 64.2494C50.8587 64.3595 50.933 64.4593 51.0263 64.5431C51.1197 64.627 51.2302 64.6933 51.3516 64.7381C51.473 64.783 51.6029 64.8056 51.7339 64.8047C51.9985 64.8029 52.2514 64.7052 52.437 64.5332C52.6226 64.3612 52.7258 64.129 52.7237 63.8877C52.7217 63.6464 52.6146 63.4156 52.4261 63.2463C52.2376 63.0769 51.9831 62.9829 51.7185 62.9847ZM55.7085 62.9847C55.5775 62.9856 55.448 63.0101 55.3274 63.0567C55.2067 63.1033 55.0973 63.1711 55.0054 63.2562C54.9135 63.3414 54.8409 63.4422 54.7917 63.553C54.7425 63.6637 54.7177 63.7822 54.7187 63.9017C54.7197 64.0212 54.7465 64.1394 54.7976 64.2494C54.8487 64.3595 54.923 64.4593 55.0163 64.5431C55.1097 64.627 55.2202 64.6933 55.3416 64.7381C55.463 64.783 55.5929 64.8056 55.7239 64.8047C55.9885 64.8029 56.2414 64.7052 56.427 64.5332C56.6126 64.3612 56.7158 64.129 56.7137 63.8877C56.7117 63.6464 56.6046 63.4156 56.4161 63.2463C56.2276 63.0769 55.9731 62.9829 55.7085 62.9847ZM59.6985 62.9847C59.5675 62.9856 59.438 63.0101 59.3174 63.0567C59.1967 63.1033 59.0873 63.1711 58.9954 63.2562C58.9035 63.3414 58.8309 63.4422 58.7817 63.553C58.7325 63.6637 58.7077 63.7822 58.7087 63.9017C58.7097 64.0212 58.7365 64.1394 58.7876 64.2494C58.8386 64.3595 58.913 64.4593 59.0063 64.5431C59.0997 64.627 59.2102 64.6933 59.3316 64.7381C59.453 64.783 59.5829 64.8056 59.7139 64.8047C59.9785 64.8029 60.2314 64.7052 60.417 64.5332C60.6026 64.3612 60.7058 64.129 60.7037 63.8877C60.7017 63.6464 60.5946 63.4156 60.4061 63.2463C60.2176 63.0769 59.9631 62.9829 59.6985 62.9847ZM63.6885 62.9847C63.5575 62.9856 63.428 63.0101 63.3074 63.0567C63.1867 63.1033 63.0773 63.1711 62.9854 63.2562C62.8935 63.3414 62.8209 63.4422 62.7717 63.553C62.7225 63.6637 62.6977 63.7822 62.6987 63.9017C62.6997 64.0212 62.7265 64.1394 62.7776 64.2494C62.8287 64.3595 62.903 64.4593 62.9963 64.5431C63.0897 64.627 63.2002 64.6933 63.3216 64.7381C63.443 64.783 63.5729 64.8056 63.7039 64.8047C63.9685 64.8029 64.2214 64.7052 64.407 64.5332C64.5926 64.3612 64.6958 64.129 64.6937 63.8877C64.6917 63.6464 64.5846 63.4156 64.3961 63.2463C64.2076 63.0769 63.9531 62.9829 63.6885 62.9847ZM33.9716 63.4408C35.5579 63.4408 36.8016 64.5754 36.8016 66.0226C36.8016 67.4697 35.5579 68.6033 33.9716 68.6033C32.3853 68.6033 31.1427 67.4697 31.1427 66.0226C31.1427 64.5754 32.3853 63.4408 33.9716 63.4408ZM53.7135 64.8047C53.5825 64.8056 53.453 64.8301 53.3324 64.8767C53.2117 64.9233 53.1023 64.9911 53.0104 65.0762C52.9185 65.1614 52.8459 65.2622 52.7967 65.373C52.7475 65.4837 52.7227 65.6022 52.7237 65.7217C52.7247 65.8412 52.7515 65.9594 52.8026 66.0694C52.8537 66.1795 52.928 66.2793 53.0213 66.3632C53.1147 66.447 53.2252 66.5133 53.3466 66.5581C53.468 66.603 53.5979 66.6256 53.7289 66.6247C53.9935 66.6229 54.2464 66.5252 54.432 66.3532C54.6176 66.1812 54.7208 65.949 54.7187 65.7077C54.7167 65.4664 54.6096 65.2356 54.4211 65.0663C54.2326 64.8969 53.9781 64.8029 53.7135 64.8047ZM57.7035 64.8047C57.5725 64.8056 57.443 64.8301 57.3224 64.8767C57.2017 64.9233 57.0923 64.9911 57.0004 65.0762C56.9085 65.1614 56.8359 65.2622 56.7867 65.373C56.7375 65.4837 56.7127 65.6022 56.7137 65.7217C56.7147 65.8412 56.7415 65.9594 56.7926 66.0694C56.8437 66.1795 56.918 66.2793 57.0113 66.3632C57.1047 66.447 57.2152 66.5133 57.3366 66.5581C57.458 66.603 57.5879 66.6256 57.7189 66.6247C57.9835 66.6229 58.2364 66.5252 58.422 66.3532C58.6076 66.1812 58.7108 65.949 58.7087 65.7077C58.7067 65.4664 58.5996 65.2356 58.4111 65.0663C58.2226 64.8969 57.9681 64.8029 57.7035 64.8047ZM61.6935 64.8047C61.5625 64.8056 61.433 64.8301 61.3124 64.8767C61.1917 64.9233 61.0823 64.9911 60.9904 65.0762C60.8985 65.1614 60.8259 65.2622 60.7767 65.373C60.7275 65.4837 60.7027 65.6022 60.7037 65.7217C60.7047 65.8412 60.7315 65.9594 60.7826 66.0694C60.8337 66.1795 60.908 66.2793 61.0013 66.3632C61.0947 66.447 61.2052 66.5133 61.3266 66.5581C61.448 66.603 61.5779 66.6256 61.7089 66.6247C61.9735 66.6229 62.2264 66.5252 62.412 66.3532C62.5976 66.1812 62.7008 65.949 62.6987 65.7077C62.6967 65.4664 62.5896 65.2356 62.4011 65.0663C62.2126 64.8969 61.9581 64.8029 61.6935 64.8047ZM49.8979 64.8167C50.0256 65.1058 50.273 65.3341 50.721 65.604C50.6951 65.4094 50.6009 65.2276 50.4526 65.0858C50.3043 64.9439 50.1098 64.8495 49.8979 64.8167ZM55.7085 66.6247C55.5775 66.6256 55.448 66.6501 55.3274 66.6967C55.2067 66.7433 55.0973 66.8111 55.0054 66.8962C54.9135 66.9814 54.8409 67.0822 54.7917 67.193C54.7425 67.3037 54.7177 67.4222 54.7187 67.5417C54.7197 67.6612 54.7465 67.7794 54.7976 67.8894C54.8487 67.9995 54.923 68.0993 55.0163 68.1832C55.1097 68.267 55.2202 68.3333 55.3416 68.3781C55.463 68.423 55.5929 68.4456 55.7239 68.4447C55.9885 68.4429 56.2414 68.3452 56.427 68.1732C56.6126 68.0012 56.7158 67.769 56.7137 67.5277C56.7117 67.2864 56.6046 67.0556 56.4161 66.8863C56.2276 66.7169 55.9731 66.6229 55.7085 66.6247ZM59.6985 66.6247C59.5675 66.6256 59.438 66.6501 59.3174 66.6967C59.1967 66.7433 59.0873 66.8111 58.9954 66.8962C58.9035 66.9814 58.8309 67.0822 58.7817 67.193C58.7325 67.3037 58.7077 67.4222 58.7087 67.5417C58.7097 67.6612 58.7365 67.7794 58.7876 67.8894C58.8386 67.9995 58.913 68.0993 59.0063 68.1832C59.0997 68.267 59.2102 68.3333 59.3316 68.3781C59.453 68.423 59.5829 68.4456 59.7139 68.4447C59.9785 68.4429 60.2314 68.3452 60.417 68.1732C60.6026 68.0012 60.7058 67.769 60.7037 67.5277C60.7017 67.2864 60.5946 67.0556 60.4061 66.8863C60.2176 66.7169 59.9631 66.6229 59.6985 66.6247ZM63.6885 66.6247C63.5575 66.6256 63.428 66.6501 63.3074 66.6967C63.1867 66.7433 63.0773 66.8111 62.9854 66.8962C62.8935 66.9814 62.8209 67.0822 62.7717 67.193C62.7225 67.3037 62.6977 67.4222 62.6987 67.5417C62.6997 67.6612 62.7265 67.7794 62.7776 67.8894C62.8287 67.9995 62.903 68.0993 62.9963 68.1832C63.0897 68.267 63.2002 68.3333 63.3216 68.3781C63.443 68.423 63.5729 68.4456 63.7039 68.4447C63.9685 68.4429 64.2214 68.3452 64.407 68.1732C64.5926 68.0012 64.6958 67.769 64.6937 67.5277C64.6917 67.2864 64.5846 67.0556 64.3961 66.8863C64.2076 66.7169 63.9531 66.6229 63.6885 66.6247ZM48.5117 67.5467C46.6717 67.5467 45.1618 68.9247 45.1618 70.6027C45.1618 72.2813 46.6723 73.6577 48.5117 73.6577C50.3511 73.6577 51.8604 72.2813 51.8604 70.6027C51.8604 68.9247 50.3511 67.5467 48.5117 67.5467ZM57.7081 68.4447C57.5131 68.4447 57.3224 68.4968 57.1596 68.5946C56.9967 68.6924 56.8689 68.8316 56.7918 68.995C56.7147 69.1583 56.6918 69.3387 56.7259 69.5138C56.76 69.6889 56.8496 69.8511 56.9836 69.9803L58.444 69.9694C58.5747 69.8392 58.661 69.6771 58.6926 69.5029C58.7241 69.3287 58.6993 69.1499 58.6214 68.9882C58.5435 68.8266 58.4157 68.6892 58.2536 68.5927C58.0915 68.4962 57.9016 68.4448 57.7081 68.4447ZM61.6987 68.4447C61.5077 68.4448 61.3207 68.495 61.1601 68.5891C60.9994 68.6833 60.8718 68.8176 60.7923 68.976C60.7128 69.1344 60.6849 69.3104 60.7117 69.4828C60.7386 69.6553 60.8192 69.8171 60.944 69.9491L62.4647 69.9366C62.586 69.8037 62.6633 69.6421 62.6876 69.4706C62.7118 69.2991 62.682 69.1249 62.6016 68.9683C62.5212 68.8117 62.3936 68.6792 62.2337 68.5864C62.0738 68.4936 61.8882 68.4448 61.6987 68.4447ZM48.5123 69.1062C48.728 69.1047 48.9419 69.1424 49.1415 69.2171C49.3412 69.2918 49.5225 69.4019 49.675 69.5412C49.8275 69.6804 49.9481 69.8459 50.0299 70.0281C50.1116 70.2102 50.1528 70.4054 50.151 70.6022C50.1528 70.799 50.1116 70.9941 50.0298 71.1762C49.9481 71.3583 49.8275 71.5237 49.6749 71.6629C49.5224 71.802 49.3411 71.9121 49.1415 71.9866C48.9418 72.0612 48.728 72.0988 48.5123 72.0972C48.2965 72.0988 48.0826 72.0612 47.8829 71.9867C47.6832 71.9121 47.5018 71.8021 47.3492 71.6629C47.1966 71.5238 47.0758 71.3584 46.994 71.1763C46.9121 70.9942 46.8708 70.799 46.8724 70.6022C46.8707 70.4053 46.912 70.2101 46.9938 70.0279C47.0756 69.8457 47.1964 69.6802 47.349 69.5409C47.5016 69.4017 47.683 69.2916 47.8827 69.2169C48.0825 69.1423 48.2964 69.1046 48.5123 69.1062ZM37.7319 71.1966C38.9676 72.2012 40.111 73.6442 41.2191 75.3087H31.3205C31.8329 74.2796 32.3248 73.2329 32.7689 72.1388C33.1599 72.2033 33.5595 72.2428 33.9693 72.2428C35.3561 72.2428 36.6506 71.8554 37.7319 71.1966Z" fill="black"/>
</svg>
