<svg width="79" height="94" viewBox="0 0 79 94" fill="none" xmlns="http://www.w3.org/2000/svg">
<rect width="79" height="94" fill="#FFED90"/>
<path d="M18.979 12.458H20.474V12.809C20.474 14.928 18.745 16.657 15.69 17.073L15.053 15.721C17.705 15.396 18.979 14.044 18.979 12.809V12.458ZM19.473 12.458H20.968V12.809C20.968 14.044 22.242 15.396 24.894 15.721L24.27 17.073C21.202 16.657 19.473 14.928 19.473 12.809V12.458ZM19.07 18.75H20.786V23.17H19.07V18.75ZM14.533 17.762H25.414V19.14H14.533V17.762ZM15.495 11.73H24.426V13.095H15.495V11.73ZM28.884 17.229H30.6V20.609H28.884V17.229ZM33.252 17.229H34.981V20.609H33.252V17.229ZM26.492 20.362H37.386V21.766H26.492V20.362ZM31.926 11.704C34.513 11.704 36.424 12.978 36.424 14.941C36.424 16.904 34.513 18.165 31.926 18.165C29.326 18.165 27.428 16.904 27.428 14.941C27.428 12.978 29.326 11.704 31.926 11.704ZM31.926 13.056C30.249 13.056 29.131 13.745 29.131 14.941C29.131 16.124 30.249 16.826 31.926 16.826C33.603 16.826 34.721 16.124 34.721 14.941C34.721 13.745 33.603 13.056 31.926 13.056ZM42.7208 16.488H51.1838V17.866H42.7208V16.488ZM41.4598 20.388H52.3538V21.805H41.4598V20.388ZM46.0228 17.112H47.7518V20.843H46.0228V17.112ZM42.7208 11.938H51.0928V13.329H44.4498V17.086H42.7208V11.938ZM53.4187 20.427H64.3127V21.831H53.4187V20.427ZM57.9817 18.152H59.7107V20.999H57.9817V18.152ZM54.6407 11.899H63.0907V15.903H56.3827V17.931H54.6667V14.551H61.3747V13.264H54.6407V11.899ZM54.6667 17.242H63.3637V18.633H54.6667V17.242Z" fill="black"/>
<path d="M37.4166 68H42.5833V77.5H37.4166M37.4166 53.75H42.5833V63.25H37.4166M37.4166 39.5H42.5833V49H37.4166M19.3333 82.25H60.6666V34.75H19.3333V82.25Z" fill="black"/>
</svg>
